<svg xmlns="http://www.w3.org/2000/svg" width="753" height="490" preserveAspectRatio="xMidYMid meet" style="display: block;" version="1.1" viewBox="0 0 2048 1233">
    <defs>
        <linearGradient id="f" x1="1924.51" x2="1925.51" y1="247.301" y2="197.719" gradientUnits="userSpaceOnUse">
            <stop class="stop0" offset="0" stop-color="rgb(161,155,165)" stop-opacity="1"/>
            <stop class="stop1" offset="1" stop-color="rgb(227,226,226)" stop-opacity="1"/>
        </linearGradient>
        <linearGradient id="e" x1="1734.85" x2="1720.99" y1="307.098" y2="290.281" gradientUnits="userSpaceOnUse">
            <stop class="stop0" offset="0" stop-color="rgb(155,153,156)" stop-opacity="1"/>
            <stop class="stop1" offset="1" stop-color="rgb(223,221,223)" stop-opacity="1"/>
        </linearGradient>
        <linearGradient id="d" x1="1572.64" x2="1461.53" y1="571.217" y2="551.812" gradientUnits="userSpaceOnUse">
            <stop class="stop0" offset="0" stop-color="rgb(193,192,194)" stop-opacity="1"/>
            <stop class="stop1" offset="1" stop-color="rgb(240,238,237)" stop-opacity="1"/>
        </linearGradient>
        <linearGradient id="c" x1="1245.31" x2="1256.93" y1="826.744" y2="923.833" gradientUnits="userSpaceOnUse">
            <stop class="stop0" offset="0" stop-color="rgb(176,171,173)" stop-opacity="1"/>
            <stop class="stop1" offset="1" stop-color="rgb(230,229,236)" stop-opacity="1"/>
        </linearGradient>
        <linearGradient id="b" x1="1585.76" x2="1621.91" y1="254.311" y2="282.367" gradientUnits="userSpaceOnUse">
            <stop class="stop0" offset="0" stop-color="rgb(204,202,202)" stop-opacity="1"/>
            <stop class="stop1" offset="1" stop-color="rgb(249,248,248)" stop-opacity="1"/>
        </linearGradient>
        <linearGradient id="a" x1="193.355" x2="143.851" y1="249.488" y2="310.135" gradientUnits="userSpaceOnUse">
            <stop class="stop0" offset="0" stop-color="rgb(202,201,201)" stop-opacity="1"/>
            <stop class="stop1" offset="1" stop-color="rgb(238,237,237)" stop-opacity="1"/>
        </linearGradient>
    </defs>
    <path fill="rgb(254,254,254)" d="M0 0L2048 0L2048 1333L0 1333Z"/>
    <path fill="rgb(254,254,254)" d="M0 114.485C27.483 130.667 56.962 149.315 81.597 170.223C110.302 194.586 140.599 222.008 168.325 247.749C175.869 254.752 187.528 271.33 194.334 279.8A1921 1921 0 0 1 256.963 361.625C274.026 385.323 293.699 408.629 306.512 434.738C310.289 442.435 324.39 454.182 323.759 460.942C286.954 463.8 244.405 470.43 220.521 500.207C171.337 561.524 225.195 625.513 295.11 619.195C305.629 618.244 324.282 612.645 327.591 601.876L326.899 599.656C322.433 599.994 316.572 606.351 310.158 607.67C287.117 612.41 258.675 604.258 241.027 589.425C216.425 568.749 214.147 534.284 235.909 510.495C257.589 486.796 294.47 480.555 325.189 478.985C365.26 477.016 400.472 484.088 438.786 494.295C452.425 497.928 466.965 501.142 480.414 505.404C467.404 541.46 450.422 589.477 435.651 623.336C411.417 627.961 414.867 634.603 423.635 653.777A1255 1255 0 0 1 397.428 711.389L391.935 722.107C359.915 780.766 301.928 876.562 220.288 835.53C207.965 829.337 202.511 817.989 210.042 805.773C212.379 801.982 219.553 794.368 219.942 790.909C217.945 790.177 218.449 790.166 216.405 790.055C216.821 788.163 216.589 787.571 216.427 785.617C206.935 778.243 199.852 769.668 191.226 761.721L137.659 712.584C115.406 691.876 93.772 672.974 70.291 653.629C57.051 642.72 45.851 629.581 31.291 618.752C17.787 608.708 18.364 601.832 0 593.998Z"/>
    <path fill="rgb(212,211,212)" d="M391.935 722.107C388.449 720.179 382.734 717.79 378.945 716.443C253.257 671.763 140.966 600.542 26.771 533.1C20.736 529.535 6.489 525.492 3.498 521.88C2.838 518.409 2.731 517.905 3.452 514.466C6.538 515.583 9.617 516.898 12.868 517.427C22.105 524.745 58.37 542.916 70.365 549.501C153.588 595.186 236.537 644.388 323.675 682.112C340.729 689.495 379.81 706.888 397.428 711.389Z"/>
    <path fill="rgb(81,75,114)" d="M339.49 460.488A594 594 0 0 1 486.491 491.521C497.036 473.581 516.847 453.772 534.269 477.654C525.479 485.941 521.942 489.039 515.614 499.602C543.567 506 540.723 505.981 564.812 495.547C558.37 508.097 554.624 511.184 541.483 517.187C529.148 516.294 519.545 513.893 508.05 512.61C494.224 542.683 479.611 572.238 466.974 603.004C461.659 615.944 454.252 630.488 449.818 643.478C458.575 635.816 466.15 626.298 474.065 617.734C518.206 569.964 568.049 528.592 624.359 495.859L633.921 490.341C664.829 473.547 692.037 456.028 728.752 467.153C737.754 469.88 761.8 481.29 758.598 493.602L757.304 494.762C751.777 492.071 738.979 481.133 734.942 480.543C709.847 476.875 671.475 497.887 650.246 508.9C647.173 510.449 643.449 512.162 640.657 514.076C578.473 548.136 520.924 588.91 471.917 640.414C467.336 645.229 462.634 650.153 457.944 654.857C468.201 680.227 498.801 732.402 516.121 752.314C519.69 757.074 523.939 763.128 528.07 767.239C532.043 766.091 581.056 778.973 590.385 777.319C591.694 777.087 622.384 780.789 622.881 781.03C625.282 775.67 626.163 772.953 627.785 767.274C630.451 758.911 632.137 750.848 634.623 742.953C635.073 751.166 634.765 761.3 633.504 769.44C632.68 773.844 631.992 776.907 631.954 781.409Q631.849 782.319 631.718 783.226C629.785 796.471 622.346 814.764 610.625 821.699C556.126 853.941 501.644 785.214 475.279 749.565C472.438 745.05 469.899 741.054 466.774 736.737C461.973 738.411 422.41 721.586 415.079 718.645L409.442 727.671C378.875 777.195 334.011 843.401 273.437 859.48C246.28 866.689 206.73 860.286 190.063 832.686C187.362 828.214 195.551 824.264 198.77 822.676C199.578 808.06 202.187 796.916 216.405 790.055C218.449 790.166 217.945 790.177 219.942 790.909C219.553 794.368 212.379 801.982 210.042 805.773C202.511 817.989 207.965 829.337 220.288 835.53C301.928 876.562 359.915 780.766 391.935 722.107L397.428 711.389A1255 1255 0 0 0 423.635 653.777C414.867 634.603 411.417 627.961 435.651 623.336C450.422 589.477 467.404 541.46 480.414 505.404C466.965 501.142 452.425 497.928 438.786 494.295C400.472 484.088 365.26 477.016 325.189 478.985C294.47 480.555 257.589 486.796 235.909 510.495C214.147 534.284 216.425 568.749 241.027 589.425C258.675 604.258 287.117 612.41 310.158 607.67C316.572 606.351 322.433 599.994 326.899 599.656L327.591 601.876C324.282 612.645 305.629 618.244 295.11 619.195C225.195 625.513 171.337 561.524 220.521 500.207C244.405 470.43 286.954 463.8 323.759 460.942C326.948 460.903 336.859 460.982 339.49 460.488Z"/>
    <path fill="rgb(254,254,254)" d="M528.07 767.239C532.043 766.091 581.056 778.973 590.385 777.319C591.694 777.087 622.384 780.789 622.881 781.03C615.644 797.226 606.847 810.086 586.837 808.055C564.008 805.738 542.001 784.238 528.07 767.239ZM415.079 718.645C420.24 709.81 431.394 689.404 436.639 681.96C446.674 702.018 456.683 717.75 466.774 736.737C461.973 738.411 422.41 721.586 415.079 718.645Z"/>
    <path fill="rgb(81,75,114)" d="M814.966 644.934C824.853 639.191 844.437 627.727 855.833 630.2C858.553 632.456 857.844 631.269 858.572 634.627C856.966 636.618 849.222 637.738 845.177 640.489C823.902 654.959 772.56 775.504 787.684 793.689C803.08 800.215 835.894 756.745 844.251 745.668L847.673 745.398C838.858 757.06 835.096 765.647 827.364 778.49C818.823 792.677 758.992 837.238 755.173 799.031C752.813 775.419 773.952 744.531 780.444 721.679C757.867 750.651 722.486 803.433 684.508 814.7C673.942 817.835 670.872 802.362 670.86 794.461C670.85 790.308 671.05 786.157 671.459 782.024L673.85 766.432C678.698 745.613 684.503 729.527 694.17 710.243C707.058 684.535 728.219 649.452 756.981 639.956C775.283 633.913 797.897 636.575 814.966 644.934Z"/>
    <path fill="rgb(254,254,254)" d="M704.287 756.222C714.643 720.78 737.263 659.19 776.484 645.796C785.067 642.865 795.118 648.844 794.932 658.099C794.315 688.869 769.326 726.396 751.138 749.859C743.919 759.221 716.157 795.668 702.916 790.213C696.123 783.576 701.982 764.767 704.287 756.222Z"/>
    <path fill="rgb(212,211,212)" d="M704.287 756.222L705.158 758.18C711.632 760.724 742.674 749.718 751.138 749.859C743.919 759.221 716.157 795.668 702.916 790.213C696.123 783.576 701.982 764.767 704.287 756.222ZM197.115 19.837C204.824 19.822 209.948 19.843 217.686 20.695C246.78 41.3 269.966 58.818 294.669 84.57C306.828 95.535 320.169 105.52 331.592 117.267C363.934 150.528 393.02 185.519 421.743 221.867C446.384 253.01 472.163 284.906 495.321 317.184C517.85 348.585 541.449 378.345 563.735 409.889C572.015 421.61 584.687 432.825 593.01 444.539C606.246 463.168 616.29 475.775 633.921 490.341L624.359 495.859C613.18 479.675 597.786 464.783 584.916 449.915C576.596 440.518 570.141 429.107 562.195 419.518C472.723 311.541 396.754 190.704 294.198 93.937C275.627 76.414 217.495 28.85 197.115 19.837Z"/>
    <path fill="url(#a)" d="M0 104.669C66.33 134.854 123.146 188.461 170.185 243.211C183.102 258.246 198.346 272.506 211.072 287.911C218.117 296.438 227.02 304.49 233.803 313.11C262.557 349.654 288.12 387.983 313.025 427.178C317.012 433.443 322.595 439.402 326.68 445.661C329.268 449.335 330.854 454.158 332.703 458.178C333.693 460.329 336.681 459.193 339.49 460.488C336.859 460.982 326.948 460.903 323.759 460.942C324.39 454.182 310.289 442.435 306.512 434.738C293.699 408.629 274.026 385.323 256.963 361.625A1921 1921 0 0 0 194.334 279.8C187.528 271.33 175.869 254.752 168.325 247.749C140.599 222.008 110.302 194.586 81.597 170.223C56.962 149.315 27.483 130.667 0 114.485Z"/>
    <path fill="rgb(212,211,212)" d="M516.121 752.314C545.105 756.435 571.997 766.869 601.791 767.329C611.432 767.478 617.811 769.346 627.785 767.274C626.163 772.953 625.282 775.67 622.881 781.03C622.384 780.789 591.694 777.087 590.385 777.319C581.056 778.973 532.043 766.091 528.07 767.239C523.939 763.128 519.69 757.074 516.121 752.314ZM409.442 727.671L415.079 718.645C422.41 721.586 461.973 738.411 466.774 736.737C469.899 741.054 472.438 745.05 475.279 749.565C463.819 749.214 420.606 732.456 409.442 727.671ZM640.657 514.076C643.449 512.162 647.173 510.449 650.246 508.9L650.878 509.869C671.033 540.269 711.528 565.457 738.2 590.383C741.96 593.897 759.562 604.511 760.475 606.679C746.112 602.583 698.398 555.871 681.831 546.497L679.552 547.597L681.352 546.372L680.599 546.311L679.672 547.902C684.302 555.668 700.92 569.698 708.111 576.665C710.969 579.434 714.489 580.988 716.708 584.481L715.959 585.033C699.172 571.619 687.961 559.011 673.016 544.294C662.572 534.007 651.304 524.84 640.657 514.076Z"/>
    <path fill="rgb(224,220,230)" d="M633.504 769.44C643.63 770.065 664.177 768.873 673.85 766.432L671.459 782.024L670.511 779.556C669.944 779.212 668.661 778.386 667.994 778.451C660.14 779.22 637.161 776.952 631.954 781.409C631.992 776.907 632.68 773.844 633.504 769.44Z"/>
    <path fill="rgb(69,63,76)" d="M844.251 745.668A1952 1952 0 0 1 858.797 721.926C855.619 732.273 853.914 736.068 847.673 745.398Z"/>
    <path fill="rgb(81,75,114)" d="M1324.21 630.351C1327.3 630.287 1329.62 630.609 1331.64 632.857C1329.86 636.143 1319.83 639.472 1317.16 641.509C1295.62 657.948 1247.66 771.14 1259.92 791.871C1274.87 802.39 1308.61 756.804 1316.33 745.969C1318.6 742.786 1327.08 728.455 1328.87 727.06L1329.81 728.07C1329.13 734.325 1302.24 773.221 1298.32 781.112C1294.5 788.802 1268.06 806.341 1258.91 810.258C1219.12 827.287 1227.63 789.227 1234.71 766.564C1239.95 752.21 1247.84 736.333 1253.88 721.865C1228.18 748.611 1208.23 785.448 1176.17 806.528C1128.82 837.667 1145.04 766.124 1152.51 744.996C1165.59 707.975 1187.85 662.563 1223.15 642.302C1241.79 631.599 1269.66 638.56 1288.54 644.787C1301.34 637.078 1309.03 631.841 1324.21 630.351Z"/>
    <path fill="rgb(254,254,254)" d="M1249.39 645.112C1251.72 645.019 1254.06 645.145 1256.36 645.489C1266.88 647.114 1269.96 658.042 1267.8 666.812C1257.84 707.255 1220.47 764.736 1187.13 788.657C1183.68 790.589 1180.5 792.419 1176.68 791.707C1163.27 780.296 1189.05 721.68 1194.9 708.549C1205.88 683.931 1222.94 654.853 1249.39 645.112Z"/>
    <path fill="rgb(81,75,114)" d="M950.434 820.94C966.826 795.949 974.373 766.783 983.706 738.62C1002.63 680.625 1018.97 626.95 1045.19 571.069C1068.92 520.513 1110.98 458.293 1176.68 472.556C1189.81 475.406 1203.21 488.158 1197.36 503.059L1195.98 503.619C1192.06 499.632 1191.21 491.611 1188.9 488.812C1155.73 448.49 1102.48 521.996 1087.62 545.203C1060.13 588.12 1045.37 626.62 1030.6 673.975C1025.5 690.33 1019.91 704.741 1015.27 720.526C1022.85 713.46 1028.44 702.381 1035.23 695.829L1038.12 696.806C1013.96 732.092 1002.29 758.824 988.246 798.936C981.29 804.199 958.825 816.335 950.434 820.94ZM1364.76 646.227C1372.08 640.146 1415.93 623.051 1418.82 635.496C1415.37 638.632 1410.42 635.968 1403.37 642.249C1388.42 655.566 1372.95 698.426 1371.2 716.735Q1372.295 714.435 1373.42 712.158C1388.72 681.364 1408.51 649.686 1442.65 638.177C1452.21 637.896 1460.17 637.343 1468.91 642.052L1470.53 644.175C1469.21 649.875 1470.1 654.454 1469.6 659.666C1468.7 668.981 1465.44 693.75 1457.92 698.826L1456.1 698.615C1453.75 692.459 1466.85 674.326 1450.94 661.312A1970 1970 0 0 0 1414.51 702.814C1409.85 708.35 1382.41 744.44 1378.91 746.389C1374.78 751.979 1362.17 770.963 1356.89 772.21C1349.64 807.383 1344.88 802.078 1315.02 818.984L1312.78 818.036C1332.91 789.266 1344.61 722.7 1353.88 687.881C1357.61 673.878 1359 660.752 1364.76 646.227Z"/>
    <path fill="rgb(212,211,212)" d="M1365.25 746.272C1377.36 716.985 1410.71 648.701 1450.94 661.312A1970 1970 0 0 0 1414.51 702.814C1409.85 708.35 1382.41 744.44 1378.91 746.389C1374.52 749.99 1369.25 751.168 1365.25 746.272Z"/>
    <path fill="rgb(224,220,230)" d="M1365.25 746.272C1369.25 751.168 1374.52 749.99 1378.91 746.389C1374.78 751.979 1362.17 770.963 1356.89 772.21C1359.42 763.409 1361.67 754.698 1365.25 746.272Z"/>
    <path fill="rgb(81,75,114)" d="M916.678 633.28C924.899 613.498 931.901 594.497 942.189 575.651C949.064 563.058 991.938 546.376 999.351 557.004L998.578 558.314C977.641 560.817 951.299 615.452 942.398 633.572A720 720 0 0 0 996.217 632.014C973.686 648.785 960.862 648.923 934.066 649.727C924.402 668.104 870.699 784.892 892.654 794.125C910.944 790.957 934.49 759.087 945.135 744.672L948.7 744.406C940.937 754.716 935.679 765.764 928.609 776.34C919.911 789.352 902.598 802.801 888.572 809.534C882.105 812.638 872.628 816.78 865.456 813.863C862.174 812.529 860.124 809.868 858.8 806.673C847.9 780.366 896.938 679.829 909.127 650.367C902.917 650.165 886.121 652.325 882.858 649.632C883.224 633.349 905.005 632.109 916.678 633.28ZM1581.72 631.37C1589.26 630.9 1617.67 630.48 1618.86 639.5C1616.95 639.806 1616.12 639.998 1614.31 640.498L1614.34 641.168C1615.55 667.503 1602.89 677.363 1586.12 695.766C1587.39 692.699 1589.04 689.175 1591.1 686.552C1617.05 653.535 1576.86 629.82 1548.4 650.552C1535.82 659.714 1530.72 667.503 1527.76 683.536C1536.03 711.906 1575.71 727.329 1584.09 751.573C1595.36 784.186 1538.77 805.419 1514.71 812.644A111.5 111.5 0 0 1 1498.29 815.855C1484.26 817.485 1450.84 817.044 1448.86 798.344C1451.83 792.941 1474.42 773.416 1479.92 773.028C1480.93 776.463 1477.35 779.453 1478.19 783.15C1481.4 797.299 1501.91 803.927 1514.43 802.584C1524.56 801.496 1547.35 791.578 1552.19 782.61C1571.07 747.636 1505.26 729.436 1503.29 697.199C1500.52 657.041 1547.71 635.244 1581.72 631.37ZM1831.55 631.375Q1834.865 631.128 1838.18 631.09C1847.35 631.03 1860.73 631.767 1867.43 638.39C1866.21 640.096 1866.4 639.589 1863.88 640.368C1861.56 645.923 1864.31 651.021 1862.28 657.173C1859.09 666.874 1846.63 686.333 1837.41 690.989L1836.36 690.615C1846.34 676.289 1857.67 660.846 1836.18 647.057C1829.09 642.507 1818.01 640.94 1809.99 643.868C1799.43 647.774 1784.98 658.233 1780.01 668.671C1760.15 710.372 1852.97 731.242 1830.54 772.322C1818.96 793.533 1784.9 806.377 1761.96 812.895C1738.55 820.159 1711.28 819.85 1695.45 798.767C1700.01 793.969 1723.16 774.012 1728.5 772.685C1730.8 777.625 1720.7 781.831 1732.83 793.229C1751.28 810.556 1787.02 800.754 1800.05 783.195C1820.21 756.02 1767.17 730.431 1756.09 710.736C1734.12 663.808 1795.88 634.93 1831.55 631.375Z"/>
    <path fill="url(#b)" d="M1810.62 20.353C1816.56 19.789 1823.56 19.931 1829.61 19.9C1821.61 26.86 1812.37 33.094 1804.69 40.433C1794.75 49.937 1782.56 57.177 1772.56 66.312A1612.7 1612.7 0 0 0 1462.56 460.673C1446.21 489.442 1431.31 507.961 1416.95 539.527L1415.75 542.677C1414.4 541.138 1414.34 541.201 1412.56 540.141L1411.15 542.682L1410.09 542.465C1420.62 518.422 1434.32 495.935 1446.46 472.615A1448.3 1448.3 0 0 1 1718.84 102.929C1729.03 93.044 1738.95 82.73 1749.05 72.751C1752.03 69.811 1758.97 68.393 1762.14 65.393C1769.93 58.003 1803.41 23.341 1810.62 20.353Z"/>
    <path fill="rgb(81,75,114)" d="M1709.76 640.204C1713.32 639.856 1720.65 639.071 1721.82 642.982C1719.28 646.296 1706.8 646.86 1695.31 664.132C1683.53 681.846 1636.66 778.115 1655.38 793.364C1670.35 805.566 1716.17 736.533 1724.38 722.478C1721.1 736.616 1718.85 738.619 1710.31 750.527C1702.71 760.924 1701.35 767.091 1695.66 775.911C1685.87 788.604 1668.56 803.793 1653.85 810.177C1632.34 819.51 1620.11 814.86 1623.44 789.974C1627.63 758.647 1638.79 730.378 1648.63 700.554C1652.68 688.274 1655.82 674.844 1660.87 663.143C1671.64 656.577 1698.19 642.68 1709.76 640.204ZM1057.7 669.032C1077.28 645.956 1131.09 611.957 1110.35 674.771C1103.01 696.99 1061.5 774.355 1070.5 793.074C1076.5 797.645 1080.82 793.174 1086.08 789.314L1088.39 790.401C1080.11 798.005 1055.74 820.541 1044.45 817.767C1016.22 799.111 1087.08 684.719 1081.93 665.081C1075.75 657.927 1063.92 669.213 1058.75 673.647ZM1312.78 818.036L1315.02 818.984C1295.22 835.197 1273.38 858.949 1254.09 876.626C1249.31 881.004 1235.48 890.811 1232.56 894.463C1235.37 897.175 1246.58 893.831 1251.05 893.147A435 435 0 0 0 1303.17 881.791C1319.44 877.291 1333.75 871.536 1351.1 870.406C1340.75 875.123 1330.73 877.203 1320.23 880.85C1288.39 891.916 1255.18 897.819 1222.57 905.275C1210.47 908.042 1184.55 934.46 1170.75 936.636C1145.24 957.577 1117.44 958.197 1120.4 917.806L1122.75 909.547C1142.93 869.996 1185.24 875.714 1171.3 903.997C1171.92 904.985 1172.02 904.848 1173.03 905.594C1182.91 903.576 1205.26 901.128 1212.95 897.467C1234.72 887.098 1258.27 865.731 1276.71 849.935C1287 841.127 1300.93 821.902 1312.78 818.036Z"/>
    <path fill="url(#c)" d="M1312.78 818.036L1315.02 818.984C1295.22 835.197 1273.38 858.949 1254.09 876.626C1249.31 881.004 1235.48 890.811 1232.56 894.463C1235.37 897.175 1246.58 893.831 1251.05 893.147A435 435 0 0 0 1303.17 881.791C1319.44 877.291 1333.75 871.536 1351.1 870.406C1340.75 875.123 1330.73 877.203 1320.23 880.85C1288.39 891.916 1255.18 897.819 1222.57 905.275C1210.47 908.042 1184.55 934.46 1170.75 936.636C1170.17 933.432 1168.86 931.401 1167.37 928.514C1170.08 928.023 1189.26 916.367 1193.02 914.029C1193.88 913.492 1193.59 913.287 1193.75 911.941C1187.07 908.709 1171.82 912.479 1163.12 911.343C1165.98 909.004 1168.6 906.515 1171.3 903.997C1171.92 904.985 1172.02 904.848 1173.03 905.594C1182.91 903.576 1205.26 901.128 1212.95 897.467C1234.72 887.098 1258.27 865.731 1276.71 849.935C1287 841.127 1300.93 821.902 1312.78 818.036Z"/>
    <path fill="rgb(254,254,254)" d="M1163.12 911.343C1171.82 912.479 1187.07 908.709 1193.75 911.941C1193.59 913.287 1193.88 913.492 1193.02 914.029C1189.26 916.367 1170.08 928.023 1167.37 928.514C1164.38 928.462 1153.95 941.625 1146.14 939.363C1139.52 937.446 1135.14 934.287 1136.57 926.876C1140.22 920.487 1154.42 916.536 1163.12 911.343Z"/>
    <path fill="rgb(212,211,212)" d="M1154.04 888.701C1172.14 895.975 1147.99 910.274 1141.07 913.993C1138.98 914.719 1139.1 914.83 1136.98 914.336C1134.26 904.917 1145.3 892.206 1154.04 888.701Z"/>
    <path fill="rgb(81,75,114)" d="M897.4 844.135C901.246 843.946 900.564 843.409 903.439 844.999C903.927 850.99 898.516 867.695 896.942 874.2C891.755 895.654 883.103 920.177 881.496 942.124C885.622 937.785 890.398 930.014 896.402 931.174L897.24 932.902C896.065 938.964 881.151 950.03 874.256 951.127C862.953 948.205 868.401 930.407 869.934 921.937C866.996 928.28 865.649 931.45 861.512 937.192A56 56 0 0 1 858.161 940.838C844.331 954.896 828.145 954.578 828.278 931.058C828.356 917.294 837.209 900.77 847.189 891.508C856.894 882.5 865.758 882.302 878.343 882.975C882.021 880.026 885.126 863.065 886.463 857.406C882.1 856.933 876.228 857.34 874.991 852.67C879.196 847.776 890.893 845.74 897.4 844.135Z"/>
    <path fill="rgb(254,254,254)" d="M865.558 890.919C869.737 890.923 873.69 892.068 877.792 893.002C873.038 907.222 862.959 925.194 852.511 935.943C848.911 938.271 849.811 938.54 846.649 938.014C838.008 928.197 849.277 896.377 865.558 890.919Z"/>
    <path fill="rgb(81,75,114)" d="M941.326 882.232C950.667 881.924 949.302 882.703 957.973 886.12C962.143 883.377 964.388 880.803 969.236 883.177C971.356 888.28 958.277 922.112 958.481 939.413L958.502 940.579C961.492 937.835 968.305 930.264 970.988 929.857C973.086 932.638 972.614 931.323 972.744 934.832C967.648 942.869 951.407 957.107 942.79 946.628C943.008 940.442 944.834 930.652 945.83 924.278C940.225 933.446 917.058 968.22 905.503 940.561C899.976 927.33 911.257 902.883 920.775 893.901C927.09 887.943 932.392 884.861 941.326 882.232Z"/>
    <path fill="rgb(254,254,254)" d="M928.421 900.832C933.115 895.613 942.401 887.045 949.968 891.661C953.617 897.646 950.735 901.079 947.914 907.212C944.434 914.636 931.293 939.86 921.746 936.52C915.872 928.245 923.599 908.515 928.421 900.832Z"/>
    <path fill="rgb(224,220,230)" d="M928.421 900.832C933.115 895.613 942.401 887.045 949.968 891.661C953.617 897.646 950.735 901.079 947.914 907.212C944.271 903.368 935.362 903.008 928.421 900.832Z"/>
    <path fill="rgb(81,75,114)" d="M1006.69 909.676C1013.62 899.609 1030.06 874.332 1045.66 883.596C1054.7 893.652 1040.35 927.456 1037.08 940.794C1040.42 938.082 1048.71 929.641 1050.98 929.766L1053.73 933.716C1052.59 939.199 1033.19 956.359 1024.67 948.614C1018.57 934.336 1038.99 903.246 1031.88 894.237C1016.72 893.883 1000.46 937.939 996.287 950.241L982.61 948.985C985.198 939.902 996.541 901.011 994.779 894.279C991.704 895.228 991.026 896.033 988.425 898.07C986.505 901.419 986.185 902.469 982.262 902.868L980.94 901.433C980.803 894.601 983.764 893.412 988.735 889.226C992.942 885.9 997.355 882.19 1002.85 881.732C1013.8 885.338 1008.51 901.075 1006.69 909.676Z"/>
    <path fill="rgb(69,63,76)" d="M988.735 889.226C989.989 893.49 990.266 893.339 988.425 898.07C986.505 901.419 986.185 902.469 982.262 902.868L980.94 901.433C980.803 894.601 983.764 893.412 988.735 889.226Z"/>
    <path fill="rgb(212,211,212)" d="M1621.63 876.007C1588.32 914.634 1556.89 949.218 1517.62 982.224C1503.11 994.418 1489.71 1009.66 1475.03 1022.07C1455.22 1038.82 1435.19 1055.09 1413.85 1069.9C1405.77 1075.49 1396.4 1084.29 1388.54 1089.06L1388.5 1088.01C1394.42 1083.22 1400.31 1077.21 1406.4 1073.04C1436.02 1052.69 1465.85 1029.67 1491.26 1004.34C1491.08 1001.44 1489.52 1001.54 1489.16 998.333C1477.72 1009.07 1397.5 1075.41 1387.32 1078.67C1388.6 1076.11 1409.06 1063.83 1413.98 1058.55C1420.43 1051.62 1433.83 1042.47 1441.77 1035.79C1465.03 1016.24 1488.84 997.145 1511.82 977.246C1521.4 968.944 1530.43 958.352 1539.67 949.372L1617.35 874.041Z"/>
    <path fill="url(#d)" d="M1442.65 638.177C1465.4 613.295 1493.27 587.279 1516.67 562.518A4660 4660 0 0 1 1566.19 509.991C1572.31 503.647 1580.68 493.948 1587.24 488.72C1588.58 494.94 1566.22 514.473 1561.71 520.234C1548.04 537.716 1470.38 626.586 1468.91 642.052C1460.17 637.343 1452.21 637.896 1442.65 638.177Z"/>
    <path fill="rgb(212,211,212)" d="M1409.08 627.342C1413.09 615.025 1421.72 608.479 1428.34 598.31C1445.83 571.436 1468.16 549.024 1488.37 524.138C1499.73 510.147 1510.51 491.875 1522.39 478.881C1536.1 463.896 1552.85 444.801 1568.18 431.556L1573.25 432.981C1566.63 441.76 1556.56 451.633 1549.37 461.431C1542.93 467.052 1531.18 488.219 1525.24 492.374C1506.43 505.544 1496.59 522.945 1481.84 540.303C1472.18 551.677 1460.57 563.416 1451.77 574.941C1437.51 593.645 1427.78 612.012 1409.08 627.342Z"/>
    <path fill="rgb(81,75,114)" d="M1068.93 944.696C1053.81 922.681 1069.44 889.734 1093.81 882.477C1102.14 879.994 1114.87 881.691 1117 891.775C1116.49 894.613 1116.56 896.136 1114.68 898.131C1105.05 899.245 1093.17 877.487 1081.09 906.871C1078.51 914.057 1076.99 920.373 1078.96 928.064C1083.57 948.195 1097.99 934.517 1108.14 930.855C1109.57 930.338 1110.18 931.367 1111.43 932.311C1113.14 942.595 1092.34 949.779 1084.5 951.343C1077.51 949.468 1075.24 948.268 1068.93 944.696Z"/>
    <path fill="url(#e)" d="M1643.64 357.297C1652.28 341.283 1716.8 295.572 1735.16 283.158C1746.34 275.6 1796.75 249.317 1809.63 244.196L1810.56 246.42C1796.78 252.595 1772.93 263.936 1761.29 273.686C1741.76 290.039 1718.23 303.506 1699.06 319.271C1679.96 334.974 1668.84 348.315 1646.76 361.032Z"/>
    <path fill="url(#f)" d="M1809.63 244.196C1871.76 213.349 1933.38 194.152 2002.88 198.579C2016.26 199.431 2034.06 197.773 2046.94 200.727C2031.49 203.871 1993.09 201.703 1974.95 203.021C1926.96 206.507 1888.38 214.159 1843.05 231.166C1831.53 235.488 1821.22 241.792 1810.56 246.42Z"/>
    <path fill="rgb(81,75,114)" d="M1763.66 562.983C1764.31 563.541 1764.34 564.014 1764.74 564.952C1758.04 577.494 1734.4 595.874 1720.48 600.877C1716.12 599.898 1711.2 597.864 1706.97 596.259C1702.15 593.541 1699.86 591.74 1701.03 586.232C1702.52 584.315 1703.95 583.517 1706.3 582.808C1726.91 576.579 1744.63 573.466 1763.66 562.983Z"/>
    <path fill="rgb(147,145,149)" d="M1643.64 357.297L1646.76 361.032C1637.38 367.461 1578.65 425.089 1573.25 432.981L1568.18 431.556C1579.28 421.326 1589.96 409.074 1600.86 398.372C1614.96 384.517 1629.62 371.167 1643.64 357.297Z"/>
    <path fill="rgb(224,220,230)" d="M1078.96 928.064C1076.99 920.373 1078.51 914.057 1081.09 906.871C1086.7 910.841 1112.13 907.928 1122.75 909.547L1120.4 917.806C1117.36 914.84 1085.67 915.514 1079.49 915.796Z"/>
    <path fill="rgb(147,145,149)" d="M1617.35 874.041C1623.89 867.561 1641.42 848.693 1646.91 844.293L1648.97 844.401L1649.55 845.914C1642.08 855.405 1629.45 866.116 1621.63 876.007Z"/>
    <path fill="rgb(28,24,32)" d="M1086.08 789.314C1091.78 783.707 1095.25 780.1 1100.21 773.76C1103.21 769.913 1109.51 760.721 1112.73 757.973L1114.18 759.061C1113.34 766.967 1094.66 784.498 1088.39 790.401ZM1057.7 669.032L1058.75 673.647C1050.81 681.159 1044.8 688.093 1038.12 696.806L1035.23 695.829C1041.82 687.128 1050.1 676.717 1057.7 669.032Z"/>
    <path fill="rgb(69,63,76)" d="M945.135 744.672C947.997 739.668 951.281 733.143 955.331 729.251L955.878 729.327L955.414 731.204L955.569 729.359L954.539 730.397L954.572 733.301L954.968 732.764C952.847 737.43 951.382 740.015 948.7 744.406Z"/>
</svg>