<svg xmlns="http://www.w3.org/2000/svg" aria-hidden="true" style="position:absolute;width:0;height:0;overflow:hidden">
        <symbol id="envelop" viewBox="0 0 32 32">
            <path d="M29 4h-26c-1.65 0-3 1.35-3 3v20c0 1.65 1.35 3 3 3h26c1.65 0 3-1.35 3-3v-20c0-1.65-1.35-3-3-3zM12.461 17.199l-8.461 6.59v-15.676l8.461 9.086zM5.512 8h20.976l-10.488 7.875-10.488-7.875zM12.79 17.553l3.21 3.447 3.21-3.447 6.58 8.447h-19.579l6.58-8.447zM19.539 17.199l8.461-9.086v15.676l-8.461-6.59z" fill="currentColor"></path>
        </symbol>
        <symbol id="instagram" viewBox="0 0 32 32">
            <path d="M16 2.881c4.275 0 4.781 0.019 6.462 0.094 1.563 0.069 2.406 0.331 2.969 0.55 0.744 0.288 1.281 0.638 1.837 1.194 0.563 0.563 0.906 1.094 1.2 1.838 0.219 0.563 0.481 1.412 0.55 2.969 0.075 1.688 0.094 2.194 0.094 6.463s-0.019 4.781-0.094 6.463c-0.069 1.563-0.331 2.406-0.55 2.969-0.288 0.744-0.637 1.281-1.194 1.837-0.563 0.563-1.094 0.906-1.837 1.2-0.563 0.219-1.413 0.481-2.969 0.55-1.688 0.075-2.194 0.094-6.463 0.094s-4.781-0.019-6.463-0.094c-1.563-0.069-2.406-0.331-2.969-0.55-0.744-0.288-1.281-0.637-1.838-1.194-0.563-0.563-0.906-1.094-1.2-1.837-0.219-0.563-0.481-1.413-0.55-2.969-0.075-1.688-0.094-2.194-0.094-6.463s0.019-4.781 0.094-6.463c0.069-1.563 0.331-2.406 0.55-2.969 0.288-0.744 0.638-1.281 1.194-1.838 0.563-0.563 1.094-0.906 1.838-1.2 0.563-0.219 1.412-0.481 2.969-0.55 1.681-0.075 2.188-0.094 6.463-0.094zM16 0c-4.344 0-4.887 0.019-6.594 0.094-1.7 0.075-2.869 0.35-3.881 0.744-1.056 0.412-1.95 0.956-2.837 1.85-0.894 0.888-1.438 1.781-1.85 2.831-0.394 1.019-0.669 2.181-0.744 3.881-0.075 1.713-0.094 2.256-0.094 6.6s0.019 4.887 0.094 6.594c0.075 1.7 0.35 2.869 0.744 3.881 0.413 1.056 0.956 1.95 1.85 2.837 0.887 0.887 1.781 1.438 2.831 1.844 1.019 0.394 2.181 0.669 3.881 0.744 1.706 0.075 2.25 0.094 6.594 0.094s4.888-0.019 6.594-0.094c1.7-0.075 2.869-0.35 3.881-0.744 1.050-0.406 1.944-0.956 2.831-1.844s1.438-1.781 1.844-2.831c0.394-1.019 0.669-2.181 0.744-3.881 0.075-1.706 0.094-2.25 0.094-6.594s-0.019-4.887-0.094-6.594c-0.075-1.7-0.35-2.869-0.744-3.881-0.394-1.063-0.938-1.956-1.831-2.844-0.887-0.887-1.781-1.438-2.831-1.844-1.019-0.394-2.181-0.669-3.881-0.744-1.712-0.081-2.256-0.1-6.6-0.1v0z" fill="currentColor"></path>
            <path d="M16 7.781c-4.537 0-8.219 3.681-8.219 8.219s3.681 8.219 8.219 8.219 8.219-3.681 8.219-8.219c0-4.537-3.681-8.219-8.219-8.219zM16 21.331c-2.944 0-5.331-2.387-5.331-5.331s2.387-5.331 5.331-5.331c2.944 0 5.331 2.387 5.331 5.331s-2.387 5.331-5.331 5.331z" fill="currentColor"></path>
            <path d="M26.462 7.456c0 1.060-0.859 1.919-1.919 1.919s-1.919-0.859-1.919-1.919c0-1.060 0.859-1.919 1.919-1.919s1.919 0.859 1.919 1.919z" fill="currentColor"></path>
        </symbol>
    <symbol id="select-up" viewBox="0 0 16 16">
        <path
        fill-rule="evenodd"
        clip-rule="evenodd"
        d="M7.14663 4.14689C7.19308 4.10033 7.24825 4.06339 7.309 4.03818C7.36974 4.01297 7.43486 4 7.50063 4C7.5664 4 7.63152 4.01297 7.69226 4.03818C7.75301 4.06339 7.80819 4.10033 7.85463 4.14689L13.8546 10.1469C13.9485 10.2408 14.0013 10.3681 14.0013 10.5009C14.0013 10.6337 13.9485 10.761 13.8546 10.8549C13.7607 10.9488 13.6334 11.0015 13.5006 11.0015C13.3679 11.0015 13.2405 10.9488 13.1466 10.8549L7.50063 5.20789L1.85463 10.8549C1.76075 10.9488 1.63341 11.0015 1.50063 11.0015C1.36786 11.0015 1.24052 10.9488 1.14663 10.8549C1.05274 10.761 1 10.6337 1 10.5009C1 10.3681 1.05274 10.2408 1.14663 10.1469L7.14663 4.14689Z"
      />
    </symbol>
    <symbol id="phone" viewBox="0 0 24 24" fill="none" stroke="currentColor" stroke-width="2" stroke-linecap="round" stroke-linejoin="round">
  <path d="M22 16.92v3a2 2 0 0 1-2.18 2 19.79 19.79 0 0 1-8.63-3.07 19.5 19.5 0 0 1-6-6 19.79 19.79 0 0 1-3.07-8.67A2 2 0 0 1 4.11 2h3a2 2 0 0 1 2 1.72 12.84 12.84 0 0 0 .7 2.81 2 2 0 0 1-.45 2.11L8.09 9.91a16 16 0 0 0 6 6l1.27-1.27a2 2 0 0 1 2.11-.45 12.84 12.84 0 0 0 2.81.7A2 2 0 0 1 22 16.92z"/>
</symbol>
    <symbol id="x" viewBox="0 0 32 32" fill="none" xmlns="http://www.w3.org/2000/svg">
        <path d="M24 8L8 24" stroke="currentColor" stroke-width="3" stroke-linecap="round" stroke-linejoin="round"/>
        <path d="M8 8L24 24" stroke="currentColor" stroke-width="3" stroke-linecap="round" stroke-linejoin="round"/>
    </symbol>
    <symbol  id="menu"  viewBox="0 0 24 24" fill="none" xmlns="http://www.w3.org/2000/svg"
          color="currentColor" style="width: 100%; height: 100%;">
        <path d="M3 5h18M3 12h18M3 19h18" stroke="currentColor" stroke-linecap="round" stroke-linejoin="round"></path>
    </symbol>
    <symbol  id="telegram" xmlns="http://www.w3.org/2000/svg"  viewBox="0 0 240 240">
        <circle cx="120" cy="120" r="120" fill="#0088cc"/>
        <path d="M50 120l135-52c6-2 11 2 9 8l-23 108c-2 8-7 10-14 6l-38-28-19 19c-3 3-6 4-9 4l4-42 77-69c3-3 0-5-4-3l-95 60-40-13c-9-3-9-10 2-14z" fill="#fff"/>
    </symbol>
    <symbol id="email" xmlns="http://www.w3.org/2000/svg" width="24" height="24" fill="currentColor" viewBox="0 0 24 24">
        <path d="M2 4h20v16H2V4zm2 2v.01L12 13l8-7v-.01H4zm0 12h16V8l-8 7-8-7v10z"/>
    </symbol>
</svg>